<svg xmlns="http://www.w3.org/2000/svg" width="111" height="20" fill="none"><path fill="#9DC4F8" d="M6 9.2A5 5 0 0 1 9.2 6L18 3.7c1.4-.4 2.3.5 1.9 1.9l-2.3 8.6a5 5 0 0 1-3.3 3.2l-8.6 2.4c-1.4.4-2.3-.5-1.9-1.9L6 9.2Z"/><path fill="#406AFF" d="M2.5 5.7a5 5 0 0 1 3.3-3.2L14.4.2c1.4-.4 2.3.5 1.9 1.9L14 10.8a5 5 0 0 1-3.2 3.2L2 16.3c-1.4.4-2.3-.5-1.9-1.9l2.3-8.7Z"/><path fill="#111729" d="M29.3 16V4.8h2.2l6.6 8h-1v-8h2.5V16h-2.1l-6.7-8h1v8h-2.5Zm16.7.1a5 5 0 0 1-2.4-.5c-.7-.4-1.3-1-1.7-1.6-.4-.7-.6-1.5-.6-2.3a4.3 4.3 0 0 1 2.3-3.9 5 5 0 0 1 2.4-.5c1 0 1.7.2 2.4.5a4.2 4.2 0 0 1 2.3 3.9c0 .8-.2 1.6-.6 2.3-.4.6-1 1.2-1.7 1.6a5 5 0 0 1-2.4.5Zm0-2c.4 0 .8-.1 1.1-.3.4-.2.6-.5.8-.8.2-.4.3-.8.3-1.3s0-1-.3-1.3a2 2 0 0 0-1.9-1c-.4 0-.8 0-1.1.2l-.8.8c-.2.4-.3.8-.3 1.3s.1 1 .3 1.3a2.2 2.2 0 0 0 2 1Zm9.8 2c-1 0-1.8-.2-2.4-.7-.6-.6-.9-1.3-.9-2.4V5.5H55V13c0 .4.1.7.3.9l.8.2c.4 0 .7 0 1-.3l.7 1.8-1 .4-1 .1Zm-4.6-6.6v-2h6v2h-6ZM63 16.1c-1 0-1.8-.2-2.6-.5-.7-.4-1.3-1-1.7-1.6-.4-.7-.6-1.5-.6-2.3a4.2 4.2 0 0 1 2.2-3.9c.8-.3 1.5-.5 2.4-.5.9 0 1.6.1 2.3.5a4 4 0 0 1 1.6 1.5 4.6 4.6 0 0 1 .5 3.1h-7v-1.5h5.7l-1 .5c0-.5 0-.9-.2-1.2a2 2 0 0 0-.7-.8c-.4-.2-.7-.2-1.2-.2-.4 0-.8 0-1.1.2l-.8.8-.2 1.2v.4c0 .5 0 .9.3 1.2.2.4.5.7.9.9l1.3.2c.5 0 .9 0 1.2-.2a3 3 0 0 0 1-.6l1.3 1.4a4 4 0 0 1-1.5 1c-.6.3-1.3.4-2 .4Zm11.2 0c-.8 0-1.6 0-2.4-.3a5.8 5.8 0 0 1-3.2-3c-.3-.8-.4-1.6-.4-2.4 0-.8.1-1.6.4-2.3a5.7 5.7 0 0 1 3.2-3c.8-.3 1.6-.5 2.5-.5 1 0 1.8.2 2.6.5a5 5 0 0 1 2 1.5L77.2 8l-1.3-1-1.5-.3-1.5.3a3.3 3.3 0 0 0-1.8 1.8 4 4 0 0 0-.3 1.5c0 .5 0 1 .3 1.5.1.4.4.8.7 1 .3.4.7.7 1.1.8a4 4 0 0 0 3 0 4 4 0 0 0 1.3-1l1.7 1.5c-.6.6-1.2 1.1-2 1.5-.8.3-1.7.5-2.7.5Zm9.9 0a5 5 0 0 1-2.5-.5c-.7-.4-1.2-1-1.7-1.6-.4-.7-.6-1.5-.6-2.3a4.3 4.3 0 0 1 2.3-3.9 5 5 0 0 1 2.5-.5c.9 0 1.7.2 2.4.5a4.2 4.2 0 0 1 2.3 3.9c0 .8-.2 1.6-.6 2.3-.4.6-1 1.2-1.7 1.6a5 5 0 0 1-2.4.5Zm0-2c.4 0 .8-.1 1-.3.4-.2.7-.5.9-.8.2-.4.3-.8.3-1.3s-.1-1-.3-1.3a2 2 0 0 0-2-1c-.3 0-.7 0-1 .2-.4.2-.6.5-.8.8-.2.4-.3.8-.3 1.3s0 1 .3 1.3a2.2 2.2 0 0 0 1.9 1Zm9.9 2c-.8 0-1.5-.2-2.2-.5a4.2 4.2 0 0 1-2.1-3.9c0-1 .2-1.7.6-2.4a4 4 0 0 1 1.5-1.5 4.4 4.4 0 0 1 4.1 0c.5.3 1 .7 1.3 1.4.3.7.4 1.5.4 2.5s-.1 1.8-.4 2.5a3 3 0 0 1-1.3 1.4c-.5.4-1.1.5-1.9.5Zm.4-2c.4 0 .8-.1 1.1-.3.4-.2.6-.5.8-.8.2-.4.3-.8.3-1.3s0-1-.3-1.3a2 2 0 0 0-1.9-1c-.4 0-.8 0-1 .2-.4.2-.7.5-.9.8-.2.4-.3.8-.3 1.3s.1 1 .3 1.3a2.2 2.2 0 0 0 2 1Zm2.3 1.9v-4.3L96.6 9v-5H99V16h-2.4Zm8.8.1c-1 0-1.9-.2-2.6-.5-.7-.4-1.3-1-1.7-1.6-.4-.7-.6-1.5-.6-2.3a4.2 4.2 0 0 1 2.2-3.9c.7-.3 1.5-.5 2.4-.5.8 0 1.6.1 2.2.5a4 4 0 0 1 1.7 1.5 4.6 4.6 0 0 1 .5 3.1h-7v-1.5h5.7l-1 .5c0-.5 0-.9-.2-1.2a2 2 0 0 0-.8-.8c-.3-.2-.7-.2-1.1-.2-.4 0-.8 0-1.1.2a2 2 0 0 0-.8.8c-.2.4-.3.7-.3 1.2v.4c0 .5.1.9.3 1.2.2.4.5.7 1 .9l1.3.2c.4 0 .8 0 1.2-.2a3 3 0 0 0 1-.6l1.2 1.4a4 4 0 0 1-1.4 1c-.6.3-1.3.4-2.1.4Z"/></svg>